<?xml version="1.0" encoding="UTF-8"?>
<svg id="Layer_1" xmlns="http://www.w3.org/2000/svg" width="600" height="600" xmlns:xlink="http://www.w3.org/1999/xlink" version="1.1" viewBox="0 0 600 600">
  <!-- Generator: Adobe Illustrator 29.8.1, SVG Export Plug-In . SVG Version: 2.1.1 Build 2)  -->
  <defs>
    <style>
      .st0 {
        fill: #090909;
      }

      .st0, .st1, .st2, .st3, .st4 {
        stroke-linejoin: round;
        stroke-width: 16px;
      }

      .st0, .st1, .st3 {
        stroke: #090909;
      }

      .st5 {
        fill: url(#radial-gradient);
      }

      .st1, .st2, .st6 {
        fill: #fff;
      }

      .st7 {
        fill: #ffabd0;
      }

      .st2 {
        stroke: #fff;
      }

      .st3 {
        fill: none;
        stroke-linecap: square;
      }

      .st4 {
        stroke: #000;
      }

      .st8 {
        fill: url(#radial-gradient1);
      }

      .st9 {
        display: none;
      }
    </style>
    <radialGradient id="radial-gradient" cx="561.34" cy="237.52" fx="787.37" fy="237.52" r="263.28" gradientTransform="translate(-277.8 -216.25) rotate(-3.17) scale(1 2.33)" gradientUnits="userSpaceOnUse">
      <stop offset=".05" stop-color="#582a86"/>
      <stop offset=".28" stop-color="#45398b"/>
      <stop offset=".74" stop-color="#166298"/>
      <stop offset=".92" stop-color="#02759f"/>
    </radialGradient>
    <radialGradient id="radial-gradient1" cx="317.08" cy="306.74" fx="670.27" fy="306.74" r="411.4" gradientTransform="translate(190.44 -110.25) rotate(29.94)" gradientUnits="userSpaceOnUse">
      <stop offset=".1" stop-color="#0090ff"/>
      <stop offset=".88" stop-color="#582a86"/>
    </radialGradient>
  </defs>
  <g id="Layer_11" data-name="Layer_1" class="st9">
    <rect class="st7" y="0" width="600" height="600" rx="50" ry="50"/>
    <polygon class="st4" points="428.4 491.4 168.8 491.4 193.6 207.1 253.3 149.7 458.2 149.7 428.4 491.4"/>
    <polygon class="st1" points="396.6 460.1 140.9 460.1 165.2 182.8 245.8 108.6 427.4 108.6 396.6 460.1"/>
    <polygon class="st0" points="367.2 261.1 200.9 261.1 210.4 153.1 376.6 153.1 367.2 261.1"/>
    <line class="st3" x1="192.4" y1="358.4" x2="358.7" y2="358.4"/>
    <line class="st3" x1="188.7" y1="400.5" x2="274" y2="400.5"/>
    <line class="st3" x1="196.1" y1="316.3" x2="362.4" y2="316.3"/>
    <polyline class="st2" points="261.5 125.9 255 200.1 180.8 200.1"/>
    <polyline class="st0" points="245.8 108.6 239.4 182.8 165.2 182.8"/>
  </g>
  <g>
    <path class="st6" d="M165.72,539.02L31.34,306.89,165.21,74.45l268.24-.32,134.34,232.17-133.87,232.44-268.21.27ZM59.21,306.84l120.4,208.04,240.37-.27,119.97-208.31-120.4-208.04-240.37.27-119.97,208.31Z"/>
    <polygon class="st5" points="539.96 306.31 419.99 514.62 179.61 514.89 59.21 306.84 179.18 98.53 419.55 98.27 539.96 306.31"/>
    <path class="st8" d="M447.21,50.47l-295.52.3L4.43,306.47l147.37,256.12,295.71-.87,147.55-255.6L447.21,50.47ZM433.93,538.75l-268.21.27L31.37,306.84,165.21,74.45l268.24-.32,134.34,232.17-133.87,232.44h0Z"/>
    <g>
      <path class="st6" d="M212.7,271.21l.1.06.09-.15c-.06.1-.11.07-.19.09Z"/>
      <path class="st6" d="M212.86,271.16l-.09.15-.1-.06c.11-.07.16-.04.19-.09Z"/>
    </g>
    <g>
      <path class="st6" d="M415.89,227.79h-52.52v-21.86h39.39c2.63,0,4.41-1.78,4.41-4.41,0-14.91-11.35-26.26-26.26-26.26h-175.11c-20.59,0-26.26,17.11-26.26,26.26v231.95c0,2.63,1.78,4.41,4.41,4.41h210.09c2.63,0,4.41-1.78,4.41-4.41v-175.11h39.39c2.63,0,4.41-1.78,4.41-4.41,0-14.91-11.35-26.26-26.26-26.26l-.08.08ZM397.93,197.12h-34.14c.42-1.78,1.27-3.47,2.2-5.25l.42-.42c.42-.85.85-1.27,1.78-1.78.28-.28.56-.56.85-.85.42-.42.85-.85,1.78-1.27.42,0,.42-.42.85-.42.42-.42,1.27-.85,2.2-.85s.42-.42.85-.42c.85-.42,1.78-.42,2.2-.85h.85c.85,0,2.2-.42,3.47-.42,7.88-.42,14.91,5.25,16.6,12.71l.08-.17ZM188.26,201.53c0-.85,0-17.54,17.54-17.54h155.37c-3.98,4.41-6.61,10.5-6.61,17.54v26.26h-113.77c-20.59,0-26.26,17.03-26.26,26.26v175.11h-26.26v-227.63ZM389.62,429.07h-166.29v-175.11c0-.85,0-17.54,17.54-17.54h155.37c-3.98,4.41-6.61,10.5-6.61,17.54v175.11ZM398.77,249.65c.42-1.78,1.27-3.47,2.2-5.25l.42-.42c.42-.85.85-1.36,1.78-1.78.28-.28.56-.56.85-.85.42-.42.85-.85,1.78-1.36.42,0,.42-.42.85-.42.42-.42,1.27-.85,2.2-.85s.42-.42.85-.42c.85-.42,1.78-.42,2.2-.85h.85c.85,0,2.2-.42,3.47-.42,8.3,0,15.33,5.68,17.11,13.13h-34.56v-.51Z"/>
      <path class="st6" d="M372.09,328.43h-21.86v8.73h17.54v34.99h-52.52c-2.63,0-4.41,1.78-4.41,4.41v30.67h-13.13v-21.86c0-2.63-1.78-4.41-4.41-4.41h-48.12v-8.73h-8.73v39.39c0,2.63,1.78,4.41,4.41,4.41h131.31c2.63,0,4.41-1.78,4.41-4.41v-78.78c0-2.63-1.78-4.41-4.41-4.41h-.08ZM245.19,389.68h43.8v17.54h-43.8v-17.54h0ZM319.57,407.22v-26.26h48.12v26.26h-48.12Z"/>
      <path class="st6" d="M245.19,337.16h78.78v-8.73h-83.19c-2.63,0-4.41,1.78-4.41,4.41v13.13h8.73v-8.73l.08-.08Z"/>
      <path class="st6" d="M341.51,359.1v-46.42l5.68,5.68,6.1-6.1-13.13-13.13c-1.78-1.78-4.41-1.78-6.1,0l-13.13,13.13,6.1,6.1,5.68-5.68v42.02h-100.64v8.73h105.05c2.63,0,4.41-1.78,4.41-4.41v.08Z"/>
      <rect class="st6" x="328.38" y="389.68" width="8.73" height="8.73"/>
      <rect class="st6" x="350.23" y="389.68" width="8.73" height="8.73"/>
      <rect class="st6" x="240.78" y="254.05" width="26.26" height="8.73"/>
      <rect class="st6" x="240.78" y="271.5" width="70.06" height="8.73"/>
      <rect class="st6" x="302.11" y="192.72" width="34.99" height="8.73"/>
      <rect class="st6" x="284.58" y="210.25" width="52.52" height="8.73"/>
      <rect class="st6" x="350.23" y="254.05" width="8.73" height="8.73"/>
      <rect class="st6" x="367.77" y="254.05" width="8.73" height="8.73"/>
      <rect class="st6" x="350.23" y="271.5" width="8.73" height="8.73"/>
      <rect class="st6" x="367.77" y="271.5" width="8.73" height="8.73"/>
    </g>
  </g>
</svg>