<?xml version="1.0" encoding="UTF-8"?>
<svg id="Layer_1" xmlns="http://www.w3.org/2000/svg" width="600" height="600" xmlns:xlink="http://www.w3.org/1999/xlink" version="1.1" viewBox="0 0 600 600">
  <!-- Generator: Adobe Illustrator 29.8.1, SVG Export Plug-In . SVG Version: 2.1.1 Build 2)  -->
  <defs>
    <style>
      .st0 {
        fill: #090909;
      }

      .st0, .st1, .st2, .st3, .st4 {
        stroke-linejoin: round;
        stroke-width: 16px;
      }

      .st0, .st1, .st3 {
        stroke: #090909;
      }

      .st5 {
        fill: url(#radial-gradient);
      }

      .st1, .st2, .st6 {
        fill: #fff;
      }

      .st7 {
        fill: #ffabd0;
      }

      .st2 {
        stroke: #fff;
      }

      .st3 {
        fill: none;
        stroke-linecap: square;
      }

      .st4 {
        stroke: #000;
      }

      .st8 {
        fill: url(#radial-gradient1);
      }

      .st9 {
        display: none;
      }
    </style>
    <radialGradient id="radial-gradient" cx="561.34" cy="237.52" fx="787.37" fy="237.52" r="263.28" gradientTransform="translate(-277.8 -216.25) rotate(-3.17) scale(1 2.33)" gradientUnits="userSpaceOnUse">
      <stop offset=".05" stop-color="#582a86"/>
      <stop offset=".28" stop-color="#45398b"/>
      <stop offset=".74" stop-color="#166298"/>
      <stop offset=".92" stop-color="#02759f"/>
    </radialGradient>
    <radialGradient id="radial-gradient1" cx="317.08" cy="306.74" fx="670.27" fy="306.74" r="411.4" gradientTransform="translate(190.44 -110.25) rotate(29.94)" gradientUnits="userSpaceOnUse">
      <stop offset=".1" stop-color="#0090ff"/>
      <stop offset=".88" stop-color="#582a86"/>
    </radialGradient>
  </defs>
  <g id="Layer_11" data-name="Layer_1" class="st9">
    <rect class="st7" y="0" width="600" height="600" rx="50" ry="50"/>
    <polygon class="st4" points="428.4 491.4 168.8 491.4 193.6 207.1 253.3 149.7 458.2 149.7 428.4 491.4"/>
    <polygon class="st1" points="396.6 460.1 140.9 460.1 165.2 182.8 245.8 108.6 427.4 108.6 396.6 460.1"/>
    <polygon class="st0" points="367.2 261.1 200.9 261.1 210.4 153.1 376.6 153.1 367.2 261.1"/>
    <line class="st3" x1="192.4" y1="358.4" x2="358.7" y2="358.4"/>
    <line class="st3" x1="188.7" y1="400.5" x2="274" y2="400.5"/>
    <line class="st3" x1="196.1" y1="316.3" x2="362.4" y2="316.3"/>
    <polyline class="st2" points="261.5 125.9 255 200.1 180.8 200.1"/>
    <polyline class="st0" points="245.8 108.6 239.4 182.8 165.2 182.8"/>
  </g>
  <g>
    <path class="st6" d="M165.72,539.02L31.34,306.89,165.21,74.45l268.24-.32,134.34,232.17-133.87,232.44-268.21.27ZM59.21,306.84l120.4,208.04,240.37-.27,119.97-208.31-120.4-208.04-240.37.27-119.97,208.31Z"/>
    <polygon class="st5" points="539.96 306.31 419.99 514.62 179.61 514.89 59.21 306.84 179.18 98.53 419.55 98.27 539.96 306.31"/>
    <path class="st8" d="M447.21,50.47l-295.52.3L4.43,306.47l147.37,256.12,295.71-.87,147.55-255.6L447.21,50.47ZM433.93,538.75l-268.21.27L31.37,306.84,165.21,74.45l268.24-.32,134.34,232.17-133.87,232.44h0Z"/>
    <g>
      <path class="st6" d="M212.7,271.21l.1.06.09-.15c-.06.1-.11.07-.19.09Z"/>
      <path class="st6" d="M212.86,271.16l-.09.15-.1-.06c.11-.07.16-.04.19-.09Z"/>
    </g>
    <path class="st6" d="M197.87,413.67c-5.01,0-9.88-1.97-13.57-5.65-5.19-5.19-6.97-12.74-4.65-19.7l2.84-8.53,7.56,2.52-7.56-2.52,11.63-34.89c2.85-8.54,4.27-12.82,6.33-17.13,2.42-5.08,5.41-9.91,8.87-14.35,2.94-3.77,6.12-6.95,12.46-13.29l100.48-100.48c9.4-9.4,21.9-14.58,35.2-14.58s25.8,5.18,35.2,14.58c19.41,19.41,19.41,50.99,0,70.4l-100.49,100.49c-6.34,6.33-9.52,9.51-13.28,12.45-4.44,3.46-9.27,6.45-14.35,8.87-4.31,2.05-8.59,3.48-17.1,6.32h-.03s-43.41,14.48-43.41,14.48c-2.02.67-4.09,1-6.13,1ZM199.18,380.16l12.98,12.98,30.24-10.08c7.89-2.63,11.86-3.95,15.28-5.58,4.04-1.92,7.88-4.3,11.4-7.05,2.99-2.33,5.94-5.28,11.81-11.15l80.52-80.53c-8.44-2.97-19.22-8.46-29.3-18.54-10.09-10.09-15.57-20.87-18.54-29.3l-80.51,80.51c-5.88,5.88-8.83,8.83-11.17,11.82-2.75,3.53-5.12,7.37-7.05,11.4-1.63,3.43-2.96,7.4-5.59,15.31l-10.07,30.22ZM377.18,274.27l1.88,1.88-1.88-1.88h0ZM326.52,217.95c1.19,6,5.02,19.11,16.88,30.97,11.86,11.86,24.97,15.69,30.97,16.88l7.03-7.03c13.19-13.19,13.19-34.66,0-47.85-6.39-6.39-14.89-9.91-23.93-9.91s-17.53,3.52-23.92,9.91l-7.03,7.03Z"/>
  </g>
</svg>