<?xml version="1.0" encoding="UTF-8"?>
<svg xmlns="http://www.w3.org/2000/svg" width="600" height="600" version="1.1" viewBox="0 0 600 600">
  <!-- Generator: Adobe Illustrator 29.3.0, SVG Export Plug-In . SVG Version: 2.1.0 Build 146)  -->
  <defs>
    <style>
      .st0 {
        fill: #090909;
      }

      .st0, .st1, .st2, .st3, .st4 {
        stroke-linejoin: round;
        stroke-width: 16px;
      }

      .st0, .st1, .st3 {
        stroke: #090909;
      }

      .st5 {
        fill: #031c86;
        stroke-miterlimit: 10;
      }

      .st5, .st4 {
        stroke: #000;
      }

      .st1, .st2, .st6 {
        fill: #fff;
      }

      .st7 {
        fill: #ffabd0;
      }

      .st2 {
        stroke: #fff;
      }

      .st3 {
        fill: none;
        stroke-linecap: square;
      }

      .st8 {
        display: none;
      }
    </style>
  </defs>
  <g id="Layer_1" class="st8">
    <rect class="st7" y="0" width="600" height="600" rx="50" ry="50"/>
    <polygon class="st4" points="428.4 491.4 168.8 491.4 193.6 207.1 253.3 149.7 458.2 149.7 428.4 491.4"/>
    <polygon class="st1" points="396.6 460.1 140.9 460.1 165.2 182.8 245.8 108.6 427.4 108.6 396.6 460.1"/>
    <polygon class="st0" points="367.2 261.1 200.9 261.1 210.4 153.1 376.6 153.1 367.2 261.1"/>
    <line class="st3" x1="192.4" y1="358.4" x2="358.7" y2="358.4"/>
    <line class="st3" x1="188.7" y1="400.5" x2="274" y2="400.5"/>
    <line class="st3" x1="196.1" y1="316.3" x2="362.4" y2="316.3"/>
    <polyline class="st2" points="261.5 125.9 255 200.1 180.8 200.1"/>
    <polyline class="st0" points="245.8 108.6 239.4 182.8 165.2 182.8"/>
  </g>
  <g id="Layer_2">
    <circle class="st5" cx="299" cy="300" r="300"/>
    <g>
      <path class="st6" d="M423,207h-62v-25.8h46.5c3.1,0,5.2-2.1,5.2-5.2,0-17.6-13.4-31-31-31h-206.7c-24.3,0-31,20.2-31,31v273.8c0,3.1,2.1,5.2,5.2,5.2h248c3.1,0,5.2-2.1,5.2-5.2v-206.7h46.5c3.1,0,5.2-2.1,5.2-5.2,0-17.6-13.4-31-31-31ZM401.8,170.8h-40.3c.5-2.1,1.5-4.1,2.6-6.2l.5-.5c.5-1,1-1.5,2.1-2.1q.5-.5,1-1c.5-.5,1-1,2.1-1.5.5,0,.5-.5,1-.5.5-.5,1.5-1,2.6-1s.5-.5,1-.5c1-.5,2.1-.5,2.6-1h1c1,0,2.6-.5,4.1-.5,9.3-.5,17.6,6.2,19.6,15ZM154.3,176c0-1,0-20.7,20.7-20.7h183.4c-4.7,5.2-7.8,12.4-7.8,20.7v31h-134.3c-24.3,0-31,20.1-31,31v206.7h-31V176ZM392,444.6h-196.3v-206.7c0-1,0-20.7,20.7-20.7h183.4c-4.7,5.2-7.8,12.4-7.8,20.7v206.7ZM402.8,232.8c.5-2.1,1.5-4.1,2.6-6.2l.5-.5c.5-1,1-1.6,2.1-2.1q.5-.5,1-1c.5-.5,1-1,2.1-1.6.5,0,.5-.5,1-.5.5-.5,1.5-1,2.6-1s.5-.5,1-.5c1-.5,2.1-.5,2.6-1h1c1,0,2.6-.5,4.1-.5,9.8,0,18.1,6.7,20.2,15.5h-40.8s0-.5,0-.5Z"/>
      <path class="st6" d="M371.3,325.8h-25.8v10.3h20.7v41.3h-62c-3.1,0-5.2,2.1-5.2,5.2v36.2h-15.5v-25.8c0-3.1-2.1-5.2-5.2-5.2h-56.8v-10.3h-10.3v46.5c0,3.1,2.1,5.2,5.2,5.2h155c3.1,0,5.2-2.1,5.2-5.2v-93c0-3.1-2.1-5.2-5.2-5.2ZM221.5,398.1h51.7v20.7h-51.7v-20.7ZM309.3,418.8v-31h56.8v31h-56.8Z"/>
      <path class="st6" d="M221.5,336.1h93v-10.3h-98.2c-3.1,0-5.2,2.1-5.2,5.2v15.5h10.3v-10.3Z"/>
      <path class="st6" d="M335.2,362v-54.8l6.7,6.7,7.2-7.2-15.5-15.5c-2.1-2.1-5.2-2.1-7.2,0l-15.5,15.5,7.2,7.2,6.7-6.7v49.6h-118.8v10.3h124c3.1,0,5.2-2.1,5.2-5.2Z"/>
      <rect class="st6" x="319.7" y="398.1" width="10.3" height="10.3"/>
      <rect class="st6" x="345.5" y="398.1" width="10.3" height="10.3"/>
      <rect class="st6" x="216.3" y="238" width="31" height="10.3"/>
      <rect class="st6" x="216.3" y="258.6" width="82.7" height="10.3"/>
      <rect class="st6" x="288.7" y="165.6" width="41.3" height="10.3"/>
      <rect class="st6" x="268" y="186.3" width="62" height="10.3"/>
      <rect class="st6" x="345.5" y="238" width="10.3" height="10.3"/>
      <rect class="st6" x="366.2" y="238" width="10.3" height="10.3"/>
      <rect class="st6" x="345.5" y="258.6" width="10.3" height="10.3"/>
      <rect class="st6" x="366.2" y="258.6" width="10.3" height="10.3"/>
    </g>
  </g>
</svg>